<svg xmlns="http://www.w3.org/2000/svg" viewBox="0 0 27.56 27.71"><defs><style>.cls-1{fill:#0f0f0f;}.cls-2{fill:#04b2d9;stroke:#272727;stroke-miterlimit:10;stroke-width:0.28px;}</style></defs><g id="Camada_2" data-name="Camada 2"><g id="atuais"><circle class="cls-1" cx="13.78" cy="13.85" r="3.01"/><path id="Mapa" class="cls-2" d="M22.46,17.57a4.93,4.93,0,0,0-2.51.71L18,16.36a4.84,4.84,0,0,0-.6-5.83l1.16-2.89h.15a3.74,3.74,0,1,0-2.45-.93l-1,2.44a4.7,4.7,0,0,0-4,.44L7.22,5.54h0a3.67,3.67,0,0,0,.37-1.59A3.72,3.72,0,1,0,3.86,7.66a3.72,3.72,0,0,0,1.6-.38h0l4.06,4.06a4.84,4.84,0,0,0,.55,5.76L6.55,21.42a3.34,3.34,0,0,0-.83-.13,3.14,3.14,0,1,0,3.1,3.18A3,3,0,0,0,8.47,23l3.66-4.48a4.71,4.71,0,0,0,4.15-.4L18.2,20a4.94,4.94,0,1,0,4.26-2.46ZM3.86,5.18a1.24,1.24,0,0,1,0-2.48,1.24,1.24,0,0,1,0,2.48Zm7.44,8.67a2.48,2.48,0,1,1,2.48,2.48A2.48,2.48,0,0,1,11.3,13.85ZM22.46,25a2.48,2.48,0,1,1,2.48-2.48A2.48,2.48,0,0,1,22.46,25ZM23.7,11.37a2.48,2.48,0,1,1-2.48,2.48A2.48,2.48,0,0,1,23.7,11.37ZM3.86,15.09a2.48,2.48,0,1,1,2.48-2.48A2.48,2.48,0,0,1,3.86,15.09ZM27.42,7.66a1.24,1.24,0,0,1-2.48,0,1.24,1.24,0,0,1,2.48,0Zm-26,9.91A1.24,1.24,0,1,1,.14,18.81,1.24,1.24,0,0,1,1.38,17.57Z"/></g></g></svg>